<svg width="50" height="50" viewBox="0 0 50 50" fill="none" xmlns="http://www.w3.org/2000/svg">
<path d="M25 0C11.193 0 0 11.1925 0 25C0 38.8075 11.193 50 25 50C38.807 50 50 38.8075 50 25C50 11.1925 38.807 0 25 0ZM25 12.5C26.3808 12.5 27.5 13.62 27.5 15C27.5 16.38 26.3808 17.5 25 17.5C23.6192 17.5 22.5 16.38 22.5 15C22.5 13.62 23.6192 12.5 25 12.5ZM25 20C26.3808 20 27.5 21.12 27.5 22.5V35C27.5 36.38 26.3808 37.5 25 37.5C23.6192 37.5 22.5 36.38 22.5 35V22.5C22.5 21.12 23.6192 20 25 20Z" fill="#2C3040"/>
</svg>
