<svg width="68" height="68" viewBox="0 0 68 68" fill="none" xmlns="http://www.w3.org/2000/svg">
<circle cx="34" cy="34" r="34" fill="#202330"/>
<path d="M37.3402 26.8434C37.7739 27.6017 38.5787 28.1111 39.5 28.1111C40.8807 28.1111 42 26.9669 42 25.5556C42 24.1442 40.8807 23 39.5 23C38.1193 23 37 24.1442 37 25.5556C37 26.0252 37.1239 26.4653 37.3402 26.8434ZM37.3402 26.8434L26.6598 33.2121M26.6598 33.2121C26.2261 32.4538 25.4213 31.9444 24.5 31.9444C23.1193 31.9444 22 33.0886 22 34.5C22 35.9114 23.1193 37.0556 24.5 37.0556C25.4213 37.0556 26.2261 36.5462 26.6598 35.7879M26.6598 33.2121C26.8761 33.5903 27 34.0303 27 34.5C27 34.9697 26.8761 35.4097 26.6598 35.7879M26.6598 35.7879L37.3402 42.1566M37.3402 42.1566C37.7739 41.3983 38.5787 40.8889 39.5 40.8889C40.8807 40.8889 42 42.0331 42 43.4444C42 44.8558 40.8807 46 39.5 46C38.1193 46 37 44.8558 37 43.4444C37 42.9748 37.1239 42.5347 37.3402 42.1566Z" stroke="#AFAFAF" stroke-width="2" stroke-linecap="round" stroke-linejoin="round"/>
</svg>
